# xmcd
#
# Track frame offsets:
#	150
#	37270
#	70650
#	111906
#	136662
#	168167
#	189923
#	204928
#	226684
#	257590
#
# Disc length: 3783 seconds
#
# Revision: 1
# Processed by: cddbd v1.5.2PL0 Copyright (c) Steve Scherf et al.
# Submitted via: audiograbber 1.83.01
#
DISCID=7a0ec50a
DTITLE=Grateful Dead - 71-03-20 University of Iowa, Iowa City IA
DYEAR=1900
DGENRE=
TTITLE0=Truckin'
TTITLE1=Loser
TTITLE2=Hard To Handle
TTITLE3=Playing In The Band
TTITLE4=Bertha
TTITLE5=Deal
TTITLE6=Me and My Uncle
TTITLE7=Next Time You See Me
TTITLE8=Me and Bobby McGee
TTITLE9=Cumberland Blues
EXTD=
EXTT0=
EXTT1=
EXTT2=
EXTT3=
EXTT4=
EXTT5=
EXTT6=
EXTT7=
EXTT8=
EXTT9=
PLAYORDER=
